C:\Users\israe\Dropbox\PhDWork\ExperimentalData\subject9\055\P9S055W01_filtered35.mot
nRows=10
nColumns=28

name C:\Users\israe\Dropbox\PhDWork\ExperimentalData\subject9\055\P9S055W01_filtered35.mot
datacolumns 28
datarows 10
range 0.8400000000 0.8490000000
endheader
time	ground_force_1_vx	ground_force_1_vy	ground_force_1_vz	ground_force_1_px	ground_force_1_py	ground_force_1_pz	ground_moment_1_mx	ground_moment_1_my	ground_moment_1_mz	ground_force_2_vx	ground_force_2_vy	ground_force_2_vz	ground_force_2_px	ground_force_2_py	ground_force_2_pz	ground_moment_2_mx	ground_moment_2_my	ground_moment_2_mz	ground_force_3_vx	ground_force_3_vy	ground_force_3_vz	ground_force_3_px	ground_force_3_py	ground_force_3_pz	ground_moment_3_mx	ground_moment_3_my	ground_moment_3_mz
        0.8400000000	       47.8877106981	      808.1852402861	       44.1379680996	        0.1988394961	        0.0000558755	       -0.3004071324	      -91.4483441882	       12.7520321814	      -66.1169364036	       -0.0000004977	        0.0000000000	        0.0000009588	        0.2029003516	       -0.0000795827	        0.4543649445	       -0.0000003142	       -0.0000000236	       -0.0000001884	        0.0000000000	        0.0000000000	        0.0000000000	        0.2076431971	        0.0000770316	        1.3583900146	       -0.0000000000	        0.0000000000	        0.0000000000	
        0.8410000000	       47.8886669917	      809.1362440682	       44.7519690346	        0.1988394961	        0.0000558755	       -0.3004071324	      -91.6471611999	       12.8154303027	      -66.1821767740	       -0.0000005737	        0.0000000000	        0.0000010897	        0.2029003516	       -0.0000795827	        0.4543649445	       -0.0000004385	       -0.0000000268	       -0.0000002618	        0.0000000000	        0.0000000000	        0.0000000000	        0.2076431971	        0.0000770316	        1.3583900146	       -0.0000000000	        0.0000000000	        0.0000000000	
        0.8420000000	       47.8981412718	      810.0620534585	       45.3609502611	        0.1988394961	        0.0000558755	       -0.3004071324	      -91.8427161391	       12.8772951282	      -66.2490848782	       -0.0000006328	        0.0000000000	        0.0000011819	        0.2029003516	       -0.0000795827	        0.4543649445	       -0.0000005812	       -0.0000000290	       -0.0000003458	        0.0000000000	        0.0000000000	        0.0000000000	        0.2076431971	        0.0000770316	        1.3583900146	       -0.0000000000	        0.0000000000	        0.0000000000	
        0.8430000000	       47.9142224700	      810.9661435398	       45.9624064546	        0.1988394961	        0.0000558755	       -0.3004071324	      -92.0354073022	       12.9375968708	      -66.3178583423	       -0.0000006613	        0.0000000000	        0.0000012085	        0.2029003516	       -0.0000795827	        0.4543649445	       -0.0000007378	       -0.0000000297	       -0.0000004376	        0.0000000000	        0.0000000000	        0.0000000000	        0.2076431971	        0.0000770316	        1.3583900146	       -0.0000000000	        0.0000000000	        0.0000000000	
        0.8440000000	       47.9346470693	      811.8486544336	       46.5544460780	        0.1988394961	        0.0000558755	       -0.3004071324	      -92.2259226529	       12.9965168233	      -66.3884937164	       -0.0000006423	        0.0000000000	        0.0000011362	        0.2029003516	       -0.0000795827	        0.4543649445	       -0.0000009003	       -0.0000000279	       -0.0000005325	        0.0000000000	        0.0000000000	        0.0000000000	        0.2076431971	        0.0000770316	        1.3583900146	       -0.0000000000	        0.0000000000	        0.0000000000	
        0.8450000000	       47.9568906036	      812.7065295506	       47.1365510027	        0.1988394961	        0.0000558755	       -0.3004071324	      -92.4150637105	       13.0544601433	      -66.4607638291	       -0.0000005550	        0.0000000000	        0.0000009248	        0.2029003516	       -0.0000795827	        0.4543649445	       -0.0000010567	       -0.0000000226	       -0.0000006231	        0.0000000000	        0.0000000000	        0.0000000000	        0.2076431971	        0.0000770316	        1.3583900146	       -0.0000000000	        0.0000000000	        0.0000000000	
        0.8460000000	       47.9789599608	      813.5369850454	       47.7095794518	        0.1988394961	        0.0000558755	       -0.3004071324	      -92.6036135672	       13.1121297488	      -66.5341848555	       -0.0000003751	        0.0000000000	        0.0000005278	        0.2029003516	       -0.0000795827	        0.4543649445	       -0.0000011895	       -0.0000000128	       -0.0000006991	       -0.0000000000	        0.0000000000	       -0.0000000000	        0.2076431971	        0.0000770316	        1.3583900146	       -0.0000000000	        0.0000000000	        0.0000000000	
        0.8470000000	       48.0001066692	      814.3399700266	       48.2750526111	        0.1988394961	        0.0000558755	       -0.3004071324	      -92.7920377267	       13.1705311712	      -66.6079628983	       -0.0000000753	        0.0000000000	       -0.0000001058	        0.2029003516	       -0.0000795827	        0.4543649445	       -0.0000012753	        0.0000000028	       -0.0000007465	       -0.0000000000	        0.0000000000	       -0.0000000000	        0.2076431971	        0.0000770316	        1.3583900146	       -0.0000000000	       -0.0000000000	       -0.0000000000	
        0.8480000000	       48.0205865239	      815.1180916967	       48.8347543796	        0.1988394961	        0.0000558755	       -0.3004071324	      -92.9802697302	       13.2307158156	      -66.6811371495	        0.0000003733	        0.0000000000	       -0.0000010297	        0.2029003516	       -0.0000795827	        0.4543649445	       -0.0000012841	        0.0000000256	       -0.0000007474	       -0.0000000000	        0.0000000000	       -0.0000000000	        0.2076431971	        0.0000770316	        1.3583900146	        0.0000000000	       -0.0000000000	       -0.0000000000	
        0.8490000000	       48.0410104609	      815.8763079630	       49.3907616101	        0.1988394961	        0.0000558755	       -0.3004071324	      -93.1678983192	       13.2933514499	      -66.7530109058	        0.0000009999	        0.0000000000	       -0.0000022959	        0.2029003516	       -0.0000795827	        0.4543649445	       -0.0000011783	        0.0000000568	       -0.0000006797	       -0.0000000000	        0.0000000000	       -0.0000000000	        0.2076431971	        0.0000770316	        1.3583900146	        0.0000000000	       -0.0000000000	       -0.0000000000	
